PathFileType	4	(X/Y/Z)	D:\TRACE\spotREDO_2-26-24\spot_Both_Motion_3_7-v60.trc
DataRate	CameraRate	NumFrames	NumMarkers	Units	OrigDataRate	OrigDataStartFrame	OrigNumFrames
100.00	100.00	      32	9	mm	100.00	6126	      7000
Frame#	Time	front left toe			Front right toe			aft left toe			aft right toe			Arm			FL body			FR body			AL Body			AR Body			
		X1	Y1	Z1	X2	Y2	Z2	X3	Y3	Z3	X4	Y4	Z4	X5	Y5	Z5	X6	Y6	Z6	X7	Y7	Z7	X8	Y8	Z8	X9	Y9	Z9	

6126	61.250	-85.71390	112.70962	-383.22580	302.74484	39.21951	-507.14066	31.82743	12.91927	142.12030	373.63580	20.44530	55.66838	80.32391	758.18738	-723.71191	23.17970	609.22833	-488.01346	176.71725	614.83356	-516.50098	179.96461	548.32129	379.89542	325.72739	542.89410	354.92963	
6127	61.260	-85.99016	112.25457	-381.61670	303.13229	39.23179	-506.91241	31.34931	12.77388	142.10361	373.15283	20.49498	55.60021	79.61359	758.09857	-723.56793	22.92518	608.64136	-488.05222	176.54803	614.24414	-516.28595	178.34821	548.36200	380.17786	324.25183	543.13379	355.44635	
6128	61.270	-86.95403	111.30039	-380.12811	303.19635	39.22038	-506.82974	31.10630	12.75670	142.13983	372.96368	20.69458	55.67735	77.82436	758.17474	-723.62726	22.39017	608.24390	-488.07285	175.87691	613.64807	-516.15479	176.75603	548.41467	380.41440	322.50119	543.13501	355.73022	
6129	61.280	-88.49501	110.33752	-379.90427	302.89624	39.24563	-506.88861	30.95533	12.77434	142.18098	372.88208	20.82837	55.74466	76.31494	758.21466	-723.46973	21.27600	607.53046	-487.82132	174.86331	613.26068	-516.10095	175.69180	548.43115	380.60486	321.45932	543.14160	355.92395	
6130	61.290	-89.66743	107.52455	-381.06534	302.54138	39.31234	-507.00586	30.96629	12.75536	142.15619	372.88217	20.84142	55.75173	75.59908	758.20172	-723.41656	20.08920	607.14398	-487.65536	173.56262	612.72064	-515.82440	174.87584	548.40399	380.83972	320.36548	542.87158	355.83856	
6131	61.300	-91.22872	101.76980	-382.06372	302.27609	39.52112	-507.19254	30.96940	12.82863	142.16849	372.83636	20.88308	55.67743	74.74416	758.47247	-723.06439	18.03435	606.92737	-487.33200	171.85504	612.52618	-515.65424	174.05562	548.48370	381.04102	319.82666	542.91278	356.09976	
6132	61.310	-92.84014	93.47636	-382.91830	301.50272	39.93285	-507.28018	31.01057	12.78492	142.23842	372.41833	20.88776	55.46764	74.62351	758.53149	-722.96301	16.01739	606.55914	-486.87762	169.69205	612.23145	-515.38092	173.27080	548.48425	381.18976	318.76099	543.11633	356.10477	
6133	61.320	-93.64702	83.41340	-383.25287	301.60602	40.19100	-507.02026	30.95657	12.76766	142.36195	372.40701	20.85460	55.39095	74.69637	758.67078	-722.96149	14.05035	606.40247	-486.46106	167.18694	612.19281	-515.32489	172.48061	548.46460	381.40900	317.89026	543.02008	355.99280	
6134	61.330	-94.56219	72.03323	-382.69797	301.01050	40.63692	-507.23999	30.98902	12.69329	142.52257	372.72479	20.90644	55.54971	74.99417	758.73212	-722.99823	11.63822	606.23682	-485.80035	165.26987	612.19299	-514.80719	171.68385	548.40399	381.70929	317.49295	542.90186	355.83017	
6135	61.340	-94.80072	60.22045	-381.79562	300.22623	40.68738	-507.53467	30.85688	12.60609	142.54982	372.15292	20.95444	55.37366	75.44750	758.81317	-723.05133	9.21707	606.15967	-485.48279	162.71808	612.26367	-514.60699	170.61409	548.39429	382.00446	316.15625	543.45050	356.20807	
6136	61.350	-95.49303	49.00081	-380.14725	299.82092	40.81422	-507.53134	30.66863	12.46515	142.58878	372.40155	21.16171	55.40770	75.88341	758.78314	-723.11517	6.81750	605.88318	-484.90665	160.26872	612.01941	-514.44592	169.44522	548.44305	382.30884	315.11261	543.59692	356.37485	
6137	61.360	-96.00117	38.46355	-379.16898	299.53427	41.01654	-507.51840	30.57294	12.27802	142.54765	372.30438	21.23208	55.35915	76.58813	758.56372	-723.11450	5.01504	605.34326	-484.52112	158.32709	611.78339	-514.09253	167.84634	548.46552	382.58246	313.12775	543.80835	356.39377	
6138	61.370	-97.40216	37.78194	-379.84711	299.34897	40.83252	-507.40521	30.46963	12.14070	142.57271	372.14621	21.14881	55.36088	77.13654	758.35657	-723.03217	3.01337	605.26825	-484.44269	156.28200	611.42523	-514.00391	165.71187	548.68048	382.79260	311.22897	543.87830	356.67874	
6139	61.380	-98.02814	38.01309	-377.82434	298.58383	41.92696	-507.70309	30.14277	11.63382	142.72122	371.97272	21.08209	55.11388	77.17679	758.34540	-723.09216	1.35507	605.91852	-483.92395	154.30110	611.92987	-513.67694	163.80438	548.65051	383.17557	309.18753	543.46796	356.94370	
6140	61.390	-98.26336	37.97128	-379.07190	298.42691	42.47732	-506.72589	29.06602	11.30887	143.07971	371.02536	21.99116	55.31792	76.79408	758.73859	-722.87183	-0.52113	606.85657	-483.98447	153.04640	612.24109	-513.40558	161.81735	549.02008	383.24289	307.35748	543.61224	357.16971	
6141	61.400	-98.32492	38.10019	-378.30597	298.42209	42.62539	-506.92603	28.99729	10.98855	143.25604	369.94095	22.09356	55.21804	76.31592	759.18146	-722.48431	-2.12631	607.51093	-484.26337	151.63858	612.25061	-513.33167	159.56630	549.78992	383.21323	305.23944	543.77863	357.54727	
6142	61.410	-98.56901	38.06181	-378.86618	298.58307	42.48174	-506.58231	28.60658	10.99454	142.63608	369.89249	22.22303	55.31645	75.88747	759.50592	-722.40729	-3.05064	608.03680	-484.32626	150.48457	612.37408	-513.35443	156.81088	550.14307	383.34891	302.66272	544.13013	357.73206	
6143	61.420	-98.24962	38.20705	-379.29379	298.52075	42.20219	-506.66504	28.42266	10.65931	142.56703	369.70950	22.37451	55.26264	75.42207	759.77551	-722.51727	-3.80099	608.59460	-484.50775	149.79834	612.87756	-513.33466	154.69460	550.76807	383.34531	300.34833	544.46021	357.58905	
6144	61.430	-98.29666	38.17929	-379.31989	298.10379	42.24984	-506.70804	28.20968	10.33812	142.56332	369.38129	22.65889	55.55330	74.99216	759.85461	-722.72803	-4.70399	609.15100	-485.05682	149.03394	613.27179	-513.56769	152.76634	551.25317	383.23114	298.35263	544.68933	357.93323	
6145	61.440	-98.32539	38.23510	-379.38336	298.17203	42.29519	-506.71307	28.12758	10.28143	142.45711	369.19177	22.80858	55.60552	74.94131	760.03583	-722.86859	-5.38433	609.44763	-485.15799	148.04031	613.79596	-513.81232	150.87244	551.67621	382.97839	296.38333	545.50238	358.10123	
6146	61.450	-98.31561	38.27557	-379.46677	298.52383	42.25492	-506.66171	27.97532	10.41510	142.28040	369.22379	23.04474	55.64190	74.86649	760.29749	-722.82990	-6.23728	609.88837	-485.80099	147.36426	614.02740	-514.16577	149.40041	552.08331	382.82043	294.91263	545.76117	357.94305	
6147	61.460	-98.44252	38.10196	-379.45508	298.42953	42.29873	-506.64270	27.77041	10.46807	142.08083	368.93460	22.97791	55.40354	74.57947	760.41876	-723.09979	-7.13990	610.12903	-486.30728	146.67259	614.36951	-514.41632	148.04828	552.50818	382.37878	293.28574	546.27618	357.55493	
6148	61.470	-98.57294	37.76852	-379.46170	298.17239	42.34806	-506.70602	27.74851	10.39655	141.94615	368.82111	22.90924	55.25254	72.97520	760.84833	-723.70734	-7.98468	609.99237	-486.67728	145.70555	614.47601	-514.76459	146.93323	553.03528	381.98224	292.63684	546.92126	357.11093	
6149	61.480	-98.72845	37.35815	-379.64215	298.15958	42.01391	-506.87595	27.67003	10.47172	141.85011	368.75232	22.90278	55.10161	72.03862	760.83295	-723.68817	-8.86928	609.71118	-487.05380	144.35187	614.50867	-515.43555	146.33426	553.46936	381.53629	291.56131	547.48260	356.69263	
6150	61.490	-98.96973	37.07810	-379.54932	298.11389	42.19759	-506.94775	27.69004	10.55335	141.79807	368.74188	22.91450	54.87981	71.65963	760.91211	-723.68768	-10.20919	609.65918	-487.78894	143.53294	614.64020	-515.99390	145.72096	554.03308	380.80551	291.07520	548.21558	356.05106	
6151	61.500	-99.06496	36.91381	-379.55194	297.78232	42.09192	-507.25647	27.68882	10.76931	141.68852	368.83832	22.90432	54.76356	70.98207	760.91650	-723.95453	-11.23940	609.70490	-487.95895	142.12813	614.71643	-516.59692	145.58954	554.46045	380.28235	291.04932	548.81372	355.33560	
6152	61.510	-99.29740	36.80442	-379.54834	297.38715	41.99109	-507.58051	27.65204	10.91846	141.64362	368.88998	22.83049	54.66179	70.29060	760.87402	-724.18280	-12.58779	609.85950	-488.66275	141.19284	614.70221	-517.21008	145.43222	554.95331	379.66043	290.70941	549.47986	354.52368	
6153	61.520	-99.41920	36.72985	-379.50113	297.24115	42.04249	-507.71881	27.62456	10.98548	141.56978	369.00620	22.77701	54.53238	70.09073	760.74994	-724.34998	-13.49224	609.47534	-489.12234	140.14149	614.75861	-518.50067	145.41426	555.51526	379.07254	290.63089	549.85059	353.58008	
6154	61.530	-99.53025	36.55893	-379.51636	296.90021	42.24852	-507.77652	27.68927	10.89585	141.56123	368.99899	22.70471	54.43146	70.26380	760.61816	-724.59784	-14.52041	609.15607	-489.64078	138.86163	614.46198	-518.81647	145.43860	555.97229	378.29614	290.44946	550.44879	352.94565	
6155	61.540	-99.61214	36.30618	-379.59134	296.88431	41.86135	-508.01120	27.69845	10.92833	141.51050	369.00876	22.72702	54.33072	70.61060	760.56049	-724.83441	-15.47060	609.14069	-490.43723	137.94942	614.25891	-519.62799	144.10114	556.69995	377.49258	290.13080	551.09045	351.82333	
6156	61.550	-99.65601	36.25615	-379.65625	296.61606	42.05554	-508.00269	27.71733	11.06489	141.47771	368.99368	22.71978	54.16538	70.91875	760.45007	-725.13995	-15.89783	608.98584	-491.07083	137.48494	614.18878	-520.21124	143.72662	557.13568	376.68066	290.07571	551.41345	351.16061	
6157	61.560	-99.68288	36.21694	-379.79837	296.81750	42.00292	-507.92752	27.66593	11.14671	141.47760	368.95493	22.77082	53.94894	71.56711	760.23804	-725.38879	-16.55309	608.90118	-492.07303	137.36292	613.80103	-520.66986	144.03180	558.04901	376.37671	289.41006	551.93610	350.41202	
